<svg width="200" height="150" viewBox="0 0 200 150" fill="none" xmlns="http://www.w3.org/2000/svg">
  <!-- Background gradient -->
  <defs>
    <linearGradient id="bgGrad4" x1="0%" y1="0%" x2="100%" y2="100%">
      <stop offset="0%" style="stop-color:#f8fafc;stop-opacity:1" />
      <stop offset="100%" style="stop-color:#e2e8f0;stop-opacity:1" />
    </linearGradient>
    <linearGradient id="robotGrad" x1="0%" y1="0%" x2="100%" y2="100%">
      <stop offset="0%" style="stop-color:#f59e0b;stop-opacity:1" />
      <stop offset="100%" style="stop-color:#d97706;stop-opacity:1" />
    </linearGradient>
    <linearGradient id="gearGrad" x1="0%" y1="0%" x2="100%" y2="100%">
      <stop offset="0%" style="stop-color:#6366f1;stop-opacity:1" />
      <stop offset="100%" style="stop-color:#4f46e5;stop-opacity:1" />
    </linearGradient>
  </defs>
  
  <!-- Background -->
  <rect width="200" height="150" fill="url(#bgGrad4)" rx="8"/>
  
  <!-- Main automation hub -->
  <g transform="translate(70, 40)">
    <!-- Central processor -->
    <rect x="0" y="0" width="60" height="40" fill="url(#robotGrad)" rx="6"/>
    <rect x="5" y="5" width="50" height="30" fill="#1e293b" rx="4"/>
    
    <!-- Screen -->
    <rect x="10" y="10" width="40" height="20" fill="#000000" rx="2"/>
    
    <!-- Status indicators -->
    <circle cx="15" cy="15" r="2" fill="#10b981"/>
    <circle cx="22" cy="15" r="2" fill="#3b82f6"/>
    <circle cx="29" cy="15" r="2" fill="#f59e0b"/>
    
    <!-- Data flow visualization -->
    <rect x="12" y="20" width="8" height="1.5" fill="#10b981"/>
    <rect x="22" y="20" width="12" height="1.5" fill="#3b82f6"/>
    <rect x="36" y="20" width="10" height="1.5" fill="#f59e0b"/>
    
    <rect x="15" y="24" width="6" height="1" fill="#64748b"/>
    <rect x="25" y="24" width="15" height="1" fill="#64748b"/>
    <rect x="12" y="27" width="20" height="1" fill="#64748b"/>
  </g>
  
  <!-- Robotic arm -->
  <g transform="translate(20, 30)">
    <!-- Base -->
    <ellipse cx="15" cy="45" rx="15" ry="5" fill="url(#robotGrad)"/>
    <rect x="10" y="25" width="10" height="20" fill="url(#robotGrad)" rx="2"/>
    
    <!-- Arm segments -->
    <rect x="20" y="30" width="25" height="6" fill="#64748b" rx="3"/>
    <rect x="42" y="25" width="6" height="15" fill="#64748b" rx="3"/>
    
    <!-- End effector -->
    <rect x="48" y="28" width="8" height="8" fill="url(#gearGrad)" rx="1"/>
    <rect x="50" y="30" width="4" height="4" fill="#1e293b"/>
    
    <!-- Joints -->
    <circle cx="20" cy="33" r="3" fill="#374151"/>
    <circle cx="42" cy="33" r="3" fill="#374151"/>
    <circle cx="45" cy="25" r="2" fill="#374151"/>
  </g>
  
  <!-- IoT devices -->
  <g transform="translate(150, 20)">
    <!-- Smart sensor -->
    <rect x="0" y="0" width="20" height="15" fill="url(#gearGrad)" rx="2"/>
    <circle cx="10" cy="7.5" r="4" fill="#1e293b"/>
    <circle cx="10" cy="7.5" r="2" fill="#10b981"/>
    
    <!-- Antenna -->
    <line x1="10" y1="0" x2="10" y2="-5" stroke="#6366f1" stroke-width="1"/>
    <circle cx="10" cy="-5" r="1" fill="#6366f1"/>
  </g>
  
  <g transform="translate(140, 50)">
    <!-- Smart device -->
    <rect x="0" y="0" width="25" height="18" fill="#374151" rx="3"/>
    <rect x="3" y="3" width="19" height="12" fill="#0f172a" rx="1"/>
    
    <!-- Display -->
    <rect x="5" y="5" width="15" height="3" fill="#3b82f6"/>
    <rect x="5" y="10" width="10" height="2" fill="#10b981"/>
    
    <!-- Signal indicators -->
    <rect x="18" y="6" width="1" height="2" fill="#10b981"/>
    <rect x="19" y="5" width="1" height="4" fill="#10b981"/>
    <rect x="20" y="4" width="1" height="6" fill="#10b981"/>
  </g>
  
  <!-- Process flow -->
  <g transform="translate(30, 95)">
    <!-- Conveyor belt -->
    <rect x="0" y="0" width="140" height="8" fill="#64748b" rx="4"/>
    <rect x="0" y="2" width="140" height="4" fill="#374151" rx="2"/>
    
    <!-- Belt segments -->
    <rect x="10" y="3" width="8" height="2" fill="#6b7280"/>
    <rect x="25" y="3" width="8" height="2" fill="#6b7280"/>
    <rect x="40" y="3" width="8" height="2" fill="#6b7280"/>
    <rect x="55" y="3" width="8" height="2" fill="#6b7280"/>
    <rect x="70" y="3" width="8" height="2" fill="#6b7280"/>
    <rect x="85" y="3" width="8" height="2" fill="#6b7280"/>
    <rect x="100" y="3" width="8" height="2" fill="#6b7280"/>
    <rect x="115" y="3" width="8" height="2" fill="#6b7280"/>
    
    <!-- Products on belt -->
    <rect x="20" y="-5" width="6" height="5" fill="url(#gearGrad)" rx="1"/>
    <rect x="50" y="-5" width="6" height="5" fill="url(#robotGrad)" rx="1"/>
    <rect x="90" y="-5" width="6" height="5" fill="#10b981" rx="1"/>
  </g>
  
  <!-- Connection lines -->
  <g stroke="#3b82f6" stroke-width="1.5" fill="none" opacity="0.6" stroke-dasharray="2,2">
    <!-- Hub to arm -->
    <path d="M 70 60 Q 50 70 35 65"/>
    <!-- Hub to sensors -->
    <path d="M 130 60 Q 140 50 155 35"/>
    <!-- Hub to devices -->
    <path d="M 130 70 Q 135 65 155 65"/>
    <!-- Hub to conveyor -->
    <path d="M 100 80 Q 100 85 100 95"/>
  </g>
  
  <!-- Gears decoration -->
  <g transform="translate(10, 10)" opacity="0.2">
    <circle cx="8" cy="8" r="6" fill="none" stroke="url(#gearGrad)" stroke-width="1"/>
    <circle cx="8" cy="8" r="2" fill="url(#gearGrad)"/>
    <!-- Gear teeth -->
    <rect x="7" y="1" width="2" height="3" fill="url(#gearGrad)"/>
    <rect x="14" y="7" width="3" height="2" fill="url(#gearGrad)"/>
    <rect x="7" y="13" width="2" height="3" fill="url(#gearGrad)"/>
    <rect x="1" y="7" width="3" height="2" fill="url(#gearGrad)"/>
  </g>
  
  <g transform="translate(175, 120)" opacity="0.15">
    <circle cx="6" cy="6" r="4" fill="none" stroke="url(#robotGrad)" stroke-width="1"/>
    <circle cx="6" cy="6" r="1.5" fill="url(#robotGrad)"/>
  </g>
</svg>
