<svg width="200" height="150" viewBox="0 0 200 150" fill="none" xmlns="http://www.w3.org/2000/svg">
  <!-- Background gradient -->
  <defs>
    <linearGradient id="bgGrad5" x1="0%" y1="0%" x2="100%" y2="100%">
      <stop offset="0%" style="stop-color:#f8fafc;stop-opacity:1" />
      <stop offset="100%" style="stop-color:#e2e8f0;stop-opacity:1" />
    </linearGradient>
    <linearGradient id="chartGrad" x1="0%" y1="0%" x2="100%" y2="100%">
      <stop offset="0%" style="stop-color:#10b981;stop-opacity:1" />
      <stop offset="100%" style="stop-color:#059669;stop-opacity:1" />
    </linearGradient>
    <linearGradient id="docGrad" x1="0%" y1="0%" x2="100%" y2="100%">
      <stop offset="0%" style="stop-color:#3b82f6;stop-opacity:1" />
      <stop offset="100%" style="stop-color:#1d4ed8;stop-opacity:1" />
    </linearGradient>
  </defs>
  
  <!-- Background -->
  <rect width="200" height="150" fill="url(#bgGrad5)" rx="8"/>
  
  <!-- Main dashboard -->
  <g transform="translate(30, 20)">
    <!-- Dashboard frame -->
    <rect x="0" y="0" width="140" height="90" fill="white" rx="6" stroke="#e2e8f0" stroke-width="2"/>
    
    <!-- Header -->
    <rect x="0" y="0" width="140" height="20" fill="url(#docGrad)" rx="6"/>
    <rect x="0" y="16" width="140" height="4" fill="url(#docGrad)"/>
    
    <!-- Title -->
    <rect x="10" y="5" width="60" height="4" fill="white" opacity="0.9" rx="1"/>
    <rect x="10" y="11" width="30" height="2" fill="white" opacity="0.7" rx="1"/>
    
    <!-- Controls -->
    <circle cx="125" cy="10" r="3" fill="white" opacity="0.8"/>
    <circle cx="115" cy="10" r="3" fill="white" opacity="0.6"/>
    <circle cx="105" cy="10" r="3" fill="white" opacity="0.4"/>
    
    <!-- Chart area -->
    <rect x="10" y="30" width="120" height="50" fill="#f8fafc" rx="2"/>
    
    <!-- Bar chart -->
    <rect x="20" y="60" width="8" height="15" fill="url(#chartGrad)"/>
    <rect x="35" y="55" width="8" height="20" fill="url(#chartGrad)"/>
    <rect x="50" y="65" width="8" height="10" fill="url(#chartGrad)"/>
    <rect x="65" y="50" width="8" height="25" fill="url(#chartGrad)"/>
    <rect x="80" y="45" width="8" height="30" fill="url(#chartGrad)"/>
    <rect x="95" y="58" width="8" height="17" fill="url(#chartGrad)"/>
    <rect x="110" y="40" width="8" height="35" fill="url(#chartGrad)"/>
    
    <!-- Chart labels -->
    <rect x="15" y="77" width="15" height="1" fill="#64748b"/>
    <rect x="35" y="77" width="15" height="1" fill="#64748b"/>
    <rect x="55" y="77" width="15" height="1" fill="#64748b"/>
    <rect x="75" y="77" width="15" height="1" fill="#64748b"/>
    <rect x="95" y="77" width="15" height="1" fill="#64748b"/>
    
    <!-- Y-axis -->
    <line x1="15" y1="35" x2="15" y2="75" stroke="#94a3b8" stroke-width="1"/>
    <line x1="13" y1="40" x2="17" y2="40" stroke="#94a3b8" stroke-width="0.5"/>
    <line x1="13" y1="50" x2="17" y2="50" stroke="#94a3b8" stroke-width="0.5"/>
    <line x1="13" y1="60" x2="17" y2="60" stroke="#94a3b8" stroke-width="0.5"/>
    <line x1="13" y1="70" x2="17" y2="70" stroke="#94a3b8" stroke-width="0.5"/>
  </g>
  
  <!-- KPI Cards -->
  <g transform="translate(15, 120)">
    <!-- Card 1 -->
    <rect x="0" y="0" width="35" height="20" fill="white" rx="3" stroke="#e2e8f0"/>
    <rect x="3" y="3" width="10" height="2" fill="url(#chartGrad)"/>
    <rect x="3" y="7" width="8" height="1.5" fill="#64748b"/>
    <circle cx="25" cy="10" r="5" fill="url(#chartGrad)" opacity="0.2"/>
    <text x="25" y="12" font-family="monospace" font-size="6" fill="url(#chartGrad)" text-anchor="middle">↑</text>
    
    <!-- Card 2 -->
    <rect x="40" y="0" width="35" height="20" fill="white" rx="3" stroke="#e2e8f0"/>
    <rect x="43" y="3" width="12" height="2" fill="#f59e0b"/>
    <rect x="43" y="7" width="10" height="1.5" fill="#64748b"/>
    <circle cx="65" cy="10" r="5" fill="#f59e0b" opacity="0.2"/>
    <text x="65" y="12" font-family="monospace" font-size="6" fill="#f59e0b" text-anchor="middle">→</text>
    
    <!-- Card 3 -->
    <rect x="80" y="0" width="35" height="20" fill="white" rx="3" stroke="#e2e8f0"/>
    <rect x="83" y="3" width="15" height="2" fill="#8b5cf6"/>
    <rect x="83" y="7" width="12" height="1.5" fill="#64748b"/>
    <circle cx="105" cy="10" r="5" fill="#8b5cf6" opacity="0.2"/>
    <text x="105" y="12" font-family="monospace" font-size="6" fill="#8b5cf6" text-anchor="middle">◊</text>
    
    <!-- Card 4 -->
    <rect x="120" y="0" width="35" height="20" fill="white" rx="3" stroke="#e2e8f0"/>
    <rect x="123" y="3" width="18" height="2" fill="#ef4444"/>
    <rect x="123" y="7" width="15" height="1.5" fill="#64748b"/>
    <circle cx="145" cy="10" r="5" fill="#ef4444" opacity="0.2"/>
    <text x="145" y="12" font-family="monospace" font-size="6" fill="#ef4444" text-anchor="middle">●</text>
  </g>
  
  <!-- Documents stack -->
  <g transform="translate(10, 50)">
    <!-- Document 1 -->
    <rect x="0" y="0" width="15" height="20" fill="white" rx="1" stroke="#cbd5e1"/>
    <rect x="2" y="3" width="8" height="1" fill="#3b82f6"/>
    <rect x="2" y="6" width="10" height="0.5" fill="#64748b"/>
    <rect x="2" y="8" width="7" height="0.5" fill="#64748b"/>
    <rect x="2" y="10" width="9" height="0.5" fill="#64748b"/>
    <rect x="2" y="12" width="6" height="0.5" fill="#64748b"/>
    
    <!-- Document 2 -->
    <rect x="2" y="2" width="15" height="20" fill="white" rx="1" stroke="#cbd5e1"/>
    <rect x="4" y="5" width="8" height="1" fill="#10b981"/>
    <rect x="4" y="8" width="10" height="0.5" fill="#64748b"/>
    <rect x="4" y="10" width="7" height="0.5" fill="#64748b"/>
    <rect x="4" y="12" width="9" height="0.5" fill="#64748b"/>
    
    <!-- Document 3 -->
    <rect x="4" y="4" width="15" height="20" fill="white" rx="1" stroke="#cbd5e1"/>
    <rect x="6" y="7" width="8" height="1" fill="#f59e0b"/>
    <rect x="6" y="10" width="10" height="0.5" fill="#64748b"/>
    <rect x="6" y="12" width="7" height="0.5" fill="#64748b"/>
    <rect x="6" y="14" width="9" height="0.5" fill="#64748b"/>
  </g>
  
  <!-- Strategy arrows -->
  <g transform="translate(175, 45)" opacity="0.4">
    <path d="M 0 0 L 15 8 L 0 16 Z" fill="url(#chartGrad)"/>
    <rect x="15" y="6" width="8" height="4" fill="url(#chartGrad)"/>
  </g>
  
  <!-- Process flow -->
  <g transform="translate(170, 85)">
    <circle cx="8" cy="8" r="6" fill="url(#docGrad)" opacity="0.3"/>
    <circle cx="8" cy="8" r="3" fill="url(#docGrad)"/>
    
    <circle cx="8" cy="25" r="5" fill="url(#chartGrad)" opacity="0.3"/>
    <circle cx="8" cy="25" r="2" fill="url(#chartGrad)"/>
    
    <line x1="8" y1="14" x2="8" y2="20" stroke="#64748b" stroke-width="1" opacity="0.6"/>
    <path d="M 6 18 L 8 20 L 10 18" stroke="#64748b" stroke-width="1" fill="none" opacity="0.6"/>
  </g>
  
  <!-- Growth trend line -->
  <g transform="translate(40, 40)" opacity="0.3">
    <path d="M 0 20 Q 20 15 40 10 Q 60 8 80 5" stroke="url(#chartGrad)" stroke-width="2" fill="none"/>
    <circle cx="80" cy="5" r="2" fill="url(#chartGrad)"/>
  </g>
</svg>
