<svg width="200" height="150" viewBox="0 0 200 150" fill="none" xmlns="http://www.w3.org/2000/svg">
  <!-- Background gradient -->
  <defs>
    <linearGradient id="bgGrad11" x1="0%" y1="0%" x2="100%" y2="100%">
      <stop offset="0%" style="stop-color:#f8fafc;stop-opacity:1" />
      <stop offset="100%" style="stop-color:#e2e8f0;stop-opacity:1" />
    </linearGradient>
    <linearGradient id="mgmtGrad" x1="0%" y1="0%" x2="100%" y2="100%">
      <stop offset="0%" style="stop-color:#6366f1;stop-opacity:1" />
      <stop offset="100%" style="stop-color:#4f46e5;stop-opacity:1" />
    </linearGradient>
    <linearGradient id="strategyGrad" x1="0%" y1="0%" x2="100%" y2="100%">
      <stop offset="0%" style="stop-color:#0d9488;stop-opacity:1" />
      <stop offset="100%" style="stop-color:#0f766e;stop-opacity:1" />
    </linearGradient>
  </defs>
  
  <!-- Background -->
  <rect width="200" height="150" fill="url(#bgGrad11)" rx="8"/>
  
  <!-- Strategic planning board -->
  <g transform="translate(20, 15)">
    <!-- Main board -->
    <rect x="0" y="0" width="160" height="100" fill="white" rx="4" stroke="#e2e8f0" stroke-width="2"/>
    
    <!-- Board header -->
    <rect x="0" y="0" width="160" height="20" fill="url(#mgmtGrad)" rx="4"/>
    <rect x="0" y="16" width="160" height="4" fill="url(#mgmtGrad)"/>
    
    <!-- Title -->
    <rect x="10" y="5" width="40" height="3" fill="white" opacity="0.9" rx="1"/>
    <rect x="10" y="10" width="25" height="2" fill="white" opacity="0.7" rx="1"/>
    
    <!-- Board controls -->
    <circle cx="140" cy="10" r="3" fill="white" opacity="0.8"/>
    <circle cx="150" cy="10" r="3" fill="white" opacity="0.6"/>
    
    <!-- Strategy matrix -->
    <g transform="translate(10, 25)">
      <!-- Quadrants -->
      <rect x="0" y="0" width="65" height="30" fill="#f8fafc" stroke="#cbd5e1" rx="2"/>
      <rect x="75" y="0" width="65" height="30" fill="#f0fdf4" stroke="#cbd5e1" rx="2"/>
      <rect x="0" y="35" width="65" height="30" fill="#fef3c7" stroke="#cbd5e1" rx="2"/>
      <rect x="75" y="35" width="65" height="30" fill="#fce7f3" stroke="#cbd5e1" rx="2"/>
      
      <!-- Quadrant labels -->
      <rect x="5" y="5" width="25" height="2" fill="url(#strategyGrad)" rx="1"/>
      <rect x="80" y="5" width="25" height="2" fill="#059669" rx="1"/>
      <rect x="5" y="40" width="25" height="2" fill="#f59e0b" rx="1"/>
      <rect x="80" y="40" width="25" height="2" fill="#ec4899" rx="1"/>
      
      <!-- Strategy items -->
      <!-- Top left quadrant -->
      <rect x="7" y="10" width="20" height="3" fill="#0d9488" opacity="0.3" rx="1"/>
      <rect x="9" y="11.5" width="8" height="1" fill="#0d9488" rx="0.3"/>
      <rect x="7" y="15" width="25" height="3" fill="#0d9488" opacity="0.3" rx="1"/>
      <rect x="9" y="16.5" width="12" height="1" fill="#0d9488" rx="0.3"/>
      <rect x="7" y="20" width="18" height="3" fill="#0d9488" opacity="0.3" rx="1"/>
      <rect x="9" y="21.5" width="10" height="1" fill="#0d9488" rx="0.3"/>
      
      <!-- Top right quadrant -->
      <rect x="82" y="10" width="22" height="3" fill="#059669" opacity="0.3" rx="1"/>
      <rect x="84" y="11.5" width="10" height="1" fill="#059669" rx="0.3"/>
      <rect x="82" y="15" width="28" height="3" fill="#059669" opacity="0.3" rx="1"/>
      <rect x="84" y="16.5" width="15" height="1" fill="#059669" rx="0.3"/>
      <rect x="82" y="20" width="20" height="3" fill="#059669" opacity="0.3" rx="1"/>
      <rect x="84" y="21.5" width="12" height="1" fill="#059669" rx="0.3"/>
      
      <!-- Bottom left quadrant -->
      <rect x="7" y="45" width="24" height="3" fill="#f59e0b" opacity="0.3" rx="1"/>
      <rect x="9" y="46.5" width="12" height="1" fill="#f59e0b" rx="0.3"/>
      <rect x="7" y="50" width="20" height="3" fill="#f59e0b" opacity="0.3" rx="1"/>
      <rect x="9" y="51.5" width="8" height="1" fill="#f59e0b" rx="0.3"/>
      <rect x="7" y="55" width="26" height="3" fill="#f59e0b" opacity="0.3" rx="1"/>
      <rect x="9" y="56.5" width="14" height="1" fill="#f59e0b" rx="0.3"/>
      
      <!-- Bottom right quadrant -->
      <rect x="82" y="45" width="26" height="3" fill="#ec4899" opacity="0.3" rx="1"/>
      <rect x="84" y="46.5" width="14" height="1" fill="#ec4899" rx="0.3"/>
      <rect x="82" y="50" width="22" height="3" fill="#ec4899" opacity="0.3" rx="1"/>
      <rect x="84" y="51.5" width="10" height="1" fill="#ec4899" rx="0.3"/>
      <rect x="82" y="55" width="24" height="3" fill="#ec4899" opacity="0.3" rx="1"/>
      <rect x="84" y="56.5" width="12" height="1" fill="#ec4899" rx="0.3"/>
    </g>
  </g>
  
  <!-- KPI Dashboard -->
  <g transform="translate(10, 120)">
    <!-- Dashboard cards -->
    <rect x="0" y="0" width="35" height="20" fill="white" rx="2" stroke="#cbd5e1"/>
    <rect x="2" y="2" width="12" height="2" fill="url(#strategyGrad)" rx="1"/>
    <rect x="2" y="6" width="8" height="1.5" fill="#64748b" rx="0.5"/>
    <rect x="2" y="9" width="10" height="1.5" fill="#64748b" rx="0.5"/>
    
    <!-- KPI value -->
    <circle cx="25" cy="10" r="6" fill="url(#strategyGrad)" opacity="0.2"/>
    <text x="25" y="12" font-family="monospace" font-size="5" fill="url(#strategyGrad)" text-anchor="middle">↗</text>
    
    <rect x="40" y="0" width="35" height="20" fill="white" rx="2" stroke="#cbd5e1"/>
    <rect x="42" y="2" width="15" height="2" fill="#f59e0b" rx="1"/>
    <rect x="42" y="6" width="10" height="1.5" fill="#64748b" rx="0.5"/>
    <rect x="42" y="9" width="12" height="1.5" fill="#64748b" rx="0.5"/>
    
    <circle cx="65" cy="10" r="6" fill="#f59e0b" opacity="0.2"/>
    <text x="65" y="12" font-family="monospace" font-size="5" fill="#f59e0b" text-anchor="middle">→</text>
    
    <rect x="80" y="0" width="35" height="20" fill="white" rx="2" stroke="#cbd5e1"/>
    <rect x="82" y="2" width="18" height="2" fill="#8b5cf6" rx="1"/>
    <rect x="82" y="6" width="12" height="1.5" fill="#64748b" rx="0.5"/>
    <rect x="82" y="9" width="15" height="1.5" fill="#64748b" rx="0.5"/>
    
    <circle cx="105" cy="10" r="6" fill="#8b5cf6" opacity="0.2"/>
    <text x="105" y="12" font-family="monospace" font-size="5" fill="#8b5cf6" text-anchor="middle">◆</text>
    
    <rect x="120" y="0" width="35" height="20" fill="white" rx="2" stroke="#cbd5e1"/>
    <rect x="122" y="2" width="20" height="2" fill="#10b981" rx="1"/>
    <rect x="122" y="6" width="15" height="1.5" fill="#64748b" rx="0.5"/>
    <rect x="122" y="9" width="18" height="1.5" fill="#64748b" rx="0.5"/>
    
    <circle cx="145" cy="10" r="6" fill="#10b981" opacity="0.2"/>
    <text x="145" y="12" font-family="monospace" font-size="5" fill="#10b981" text-anchor="middle">✓</text>
    
    <rect x="160" y="0" width="35" height="20" fill="white" rx="2" stroke="#cbd5e1"/>
    <rect x="162" y="2" width="22" height="2" fill="#ef4444" rx="1"/>
    <rect x="162" y="6" width="18" height="1.5" fill="#64748b" rx="0.5"/>
    <rect x="162" y="9" width="20" height="1.5" fill="#64748b" rx="0.5"/>
    
    <circle cx="185" cy="10" r="6" fill="#ef4444" opacity="0.2"/>
    <text x="185" y="12" font-family="monospace" font-size="5" fill="#ef4444" text-anchor="middle">!</text>
  </g>
  
  <!-- Organizational chart -->
  <g transform="translate(15, 70)">
    <!-- Executive level -->
    <rect x="0" y="0" width="25" height="12" fill="url(#mgmtGrad)" rx="2"/>
    <rect x="2" y="2" width="21" height="8" fill="#1e293b" rx="1"/>
    <rect x="4" y="4" width="8" height="1.5" fill="white" opacity="0.8" rx="0.5"/>
    <rect x="4" y="6.5" width="12" height="1" fill="white" opacity="0.6" rx="0.3"/>
    
    <!-- Manager level -->
    <rect x="35" y="5" width="20" height="10" fill="url(#strategyGrad)" rx="2"/>
    <rect x="37" y="7" width="16" height="6" fill="#0f172a" rx="1"/>
    <rect x="39" y="8" width="6" height="1" fill="white" opacity="0.8" rx="0.3"/>
    <rect x="39" y="10" width="8" height="0.8" fill="white" opacity="0.6" rx="0.3"/>
    
    <rect x="65" y="5" width="20" height="10" fill="url(#strategyGrad)" rx="2"/>
    <rect x="67" y="7" width="16" height="6" fill="#0f172a" rx="1"/>
    <rect x="69" y="8" width="7" height="1" fill="white" opacity="0.8" rx="0.3"/>
    <rect x="69" y="10" width="9" height="0.8" fill="white" opacity="0.6" rx="0.3"/>
    
    <rect x="95" y="5" width="20" height="10" fill="url(#strategyGrad)" rx="2"/>
    <rect x="97" y="7" width="16" height="6" fill="#0f172a" rx="1"/>
    <rect x="99" y="8" width="8" height="1" fill="white" opacity="0.8" rx="0.3"/>
    <rect x="99" y="10" width="10" height="0.8" fill="white" opacity="0.6" rx="0.3"/>
    
    <!-- Team level -->
    <rect x="30" y="20" width="15" height="8" fill="#64748b" rx="1"/>
    <rect x="32" y="22" width="11" height="4" fill="#334155" rx="0.5"/>
    <rect x="33" y="23" width="4" height="0.8" fill="#cbd5e1" rx="0.3"/>
    <rect x="33" y="24.5" width="6" height="0.6" fill="#cbd5e1" rx="0.3"/>
    
    <rect x="50" y="20" width="15" height="8" fill="#64748b" rx="1"/>
    <rect x="52" y="22" width="11" height="4" fill="#334155" rx="0.5"/>
    <rect x="53" y="23" width="5" height="0.8" fill="#cbd5e1" rx="0.3"/>
    <rect x="53" y="24.5" width="7" height="0.6" fill="#cbd5e1" rx="0.3"/>
    
    <rect x="70" y="20" width="15" height="8" fill="#64748b" rx="1"/>
    <rect x="72" y="22" width="11" height="4" fill="#334155" rx="0.5"/>
    <rect x="73" y="23" width="6" height="0.8" fill="#cbd5e1" rx="0.3"/>
    <rect x="73" y="24.5" width="8" height="0.6" fill="#cbd5e1" rx="0.3"/>
    
    <rect x="90" y="20" width="15" height="8" fill="#64748b" rx="1"/>
    <rect x="92" y="22" width="11" height="4" fill="#334155" rx="0.5"/>
    <rect x="93" y="23" width="4" height="0.8" fill="#cbd5e1" rx="0.3"/>
    <rect x="93" y="24.5" width="6" height="0.6" fill="#cbd5e1" rx="0.3"/>
    
    <!-- Org chart connections -->
    <g stroke="#6366f1" stroke-width="1" fill="none" opacity="0.6">
      <!-- Executive to managers -->
      <line x1="25" y1="6" x2="35" y2="10"/>
      <line x1="25" y1="6" x2="65" y2="10"/>
      <line x1="25" y1="6" x2="95" y2="10"/>
      
      <!-- Managers to teams -->
      <line x1="45" y1="15" x2="37" y2="20"/>
      <line x1="45" y1="15" x2="57" y2="20"/>
      <line x1="75" y1="15" x2="77" y2="20"/>
      <line x1="105" y1="15" x2="97" y2="20"/>
    </g>
  </g>
  
  <!-- Process optimization flow -->
  <g transform="translate(130, 70)">
    <!-- Process blocks -->
    <rect x="0" y="0" width="15" height="8" fill="#10b981" rx="1"/>
    <rect x="1" y="1" width="13" height="6" fill="#065f46" rx="0.5"/>
    <rect x="2" y="2" width="5" height="1" fill="#10b981" rx="0.3"/>
    <rect x="2" y="4" width="8" height="0.8" fill="#10b981" rx="0.3"/>
    <rect x="2" y="5.5" width="6" height="0.8" fill="#10b981" rx="0.3"/>
    
    <rect x="20" y="0" width="15" height="8" fill="#f59e0b" rx="1"/>
    <rect x="21" y="1" width="13" height="6" fill="#92400e" rx="0.5"/>
    <rect x="22" y="2" width="6" height="1" fill="#f59e0b" rx="0.3"/>
    <rect x="22" y="4" width="9" height="0.8" fill="#f59e0b" rx="0.3"/>
    <rect x="22" y="5.5" width="7" height="0.8" fill="#f59e0b" rx="0.3"/>
    
    <rect x="40" y="0" width="15" height="8" fill="#3b82f6" rx="1"/>
    <rect x="41" y="1" width="13" height="6" fill="#1e3a8a" rx="0.5"/>
    <rect x="42" y="2" width="7" height="1" fill="#3b82f6" rx="0.3"/>
    <rect x="42" y="4" width="10" height="0.8" fill="#3b82f6" rx="0.3"/>
    <rect x="42" y="5.5" width="8" height="0.8" fill="#3b82f6" rx="0.3"/>
    
    <!-- Process flow arrows -->
    <path d="M 15 4 L 20 4" stroke="url(#mgmtGrad)" stroke-width="1" marker-end="url(#arrowhead)"/>
    <path d="M 35 4 L 40 4" stroke="url(#mgmtGrad)" stroke-width="1" marker-end="url(#arrowhead)"/>
    
    <!-- Optimization indicators -->
    <circle cx="7.5" cy="12" r="2" fill="#10b981" opacity="0.3"/>
    <text x="7.5" y="13" font-family="monospace" font-size="3" fill="#10b981" text-anchor="middle">95%</text>
    
    <circle cx="27.5" cy="12" r="2" fill="#f59e0b" opacity="0.3"/>
    <text x="27.5" y="13" font-family="monospace" font-size="3" fill="#f59e0b" text-anchor="middle">68%</text>
    
    <circle cx="47.5" cy="12" r="2" fill="#3b82f6" opacity="0.3"/>
    <text x="47.5" y="13" font-family="monospace" font-size="3" fill="#3b82f6" text-anchor="middle">87%</text>
  </g>
  
  <!-- Strategic arrows -->
  <g transform="translate(185, 45)" opacity="0.5">
    <path d="M 0 0 L 12 6 L 0 12 Z" fill="url(#strategyGrad)"/>
    <rect x="12" y="4" width="8" height="4" fill="url(#strategyGrad)"/>
  </g>
  
  <g transform="translate(5, 105)" opacity="0.4">
    <circle cx="8" cy="8" r="6" fill="none" stroke="url(#mgmtGrad)" stroke-width="1"/>
    <circle cx="8" cy="8" r="3" fill="url(#mgmtGrad)"/>
    <path d="M 6 8 Q 8 6 10 8 Q 8 10 6 8" fill="white"/>
  </g>
</svg>
