<svg width="200" height="150" viewBox="0 0 200 150" fill="none" xmlns="http://www.w3.org/2000/svg">
  <!-- Background gradient -->
  <defs>
    <linearGradient id="bgGrad3" x1="0%" y1="0%" x2="100%" y2="100%">
      <stop offset="0%" style="stop-color:#f8fafc;stop-opacity:1" />
      <stop offset="100%" style="stop-color:#e2e8f0;stop-opacity:1" />
    </linearGradient>
    <linearGradient id="cloudGrad" x1="0%" y1="0%" x2="100%" y2="100%">
      <stop offset="0%" style="stop-color:#0ea5e9;stop-opacity:1" />
      <stop offset="100%" style="stop-color:#0284c7;stop-opacity:1" />
    </linearGradient>
    <linearGradient id="serverGrad" x1="0%" y1="0%" x2="100%" y2="100%">
      <stop offset="0%" style="stop-color:#1e293b;stop-opacity:1" />
      <stop offset="100%" style="stop-color:#334155;stop-opacity:1" />
    </linearGradient>
  </defs>
  
  <!-- Background -->
  <rect width="200" height="150" fill="url(#bgGrad3)" rx="8"/>
  
  <!-- Large cloud -->
  <g transform="translate(40, 20)">
    <ellipse cx="60" cy="25" rx="35" ry="20" fill="url(#cloudGrad)" opacity="0.9"/>
    <ellipse cx="30" cy="30" rx="25" ry="15" fill="url(#cloudGrad)" opacity="0.9"/>
    <ellipse cx="85" cy="32" rx="20" ry="12" fill="url(#cloudGrad)" opacity="0.9"/>
    <ellipse cx="55" cy="45" rx="45" ry="12" fill="url(#cloudGrad)" opacity="0.9"/>
    
    <!-- Cloud storage icons -->
    <g transform="translate(45, 20)">
      <rect x="0" y="0" width="30" height="20" fill="white" fill-opacity="0.3" rx="2"/>
      <rect x="5" y="5" width="20" height="2" fill="white" fill-opacity="0.8"/>
      <rect x="5" y="9" width="15" height="1.5" fill="white" fill-opacity="0.6"/>
      <rect x="5" y="12.5" width="18" height="1.5" fill="white" fill-opacity="0.6"/>
      <circle cx="25" cy="8" r="3" fill="white" fill-opacity="0.4"/>
      <path d="M23 8 L25 10 L27 6" stroke="white" stroke-width="1" fill="none" opacity="0.8"/>
    </g>
  </g>
  
  <!-- Server rack -->
  <g transform="translate(20, 80)">
    <rect x="0" y="0" width="60" height="45" fill="url(#serverGrad)" rx="3"/>
    <rect x="2" y="2" width="56" height="41" fill="#0f172a" rx="2"/>
    
    <!-- Server bays -->
    <rect x="5" y="5" width="50" height="8" fill="#374151" rx="1"/>
    <rect x="5" y="15" width="50" height="8" fill="#374151" rx="1"/>
    <rect x="5" y="25" width="50" height="8" fill="#374151" rx="1"/>
    <rect x="5" y="35" width="50" height="6" fill="#374151" rx="1"/>
    
    <!-- Status LEDs -->
    <circle cx="50" cy="9" r="1.5" fill="#10b981"/>
    <circle cx="50" cy="19" r="1.5" fill="#10b981"/>
    <circle cx="50" cy="29" r="1.5" fill="#f59e0b"/>
    <circle cx="50" cy="38" r="1.5" fill="#10b981"/>
    
    <!-- Labels -->
    <rect x="8" y="7" width="15" height="4" fill="#64748b" rx="0.5"/>
    <rect x="8" y="17" width="15" height="4" fill="#64748b" rx="0.5"/>
    <rect x="8" y="27" width="15" height="4" fill="#64748b" rx="0.5"/>
    <rect x="8" y="36" width="15" height="3" fill="#64748b" rx="0.5"/>
  </g>
  
  <!-- Database -->
  <g transform="translate(120, 85)">
    <ellipse cx="25" cy="5" rx="25" ry="5" fill="#6366f1"/>
    <rect x="0" y="5" width="50" height="30" fill="#4f46e5"/>
    <ellipse cx="25" cy="35" rx="25" ry="5" fill="#3730a3"/>
    
    <!-- Database layers -->
    <ellipse cx="25" cy="12" rx="20" ry="3" fill="#5b21b6" opacity="0.6"/>
    <ellipse cx="25" cy="20" rx="20" ry="3" fill="#5b21b6" opacity="0.6"/>
    <ellipse cx="25" cy="28" rx="20" ry="3" fill="#5b21b6" opacity="0.6"/>
  </g>
  
  <!-- Connection lines -->
  <g stroke="#0ea5e9" stroke-width="2" fill="none" opacity="0.6" stroke-dasharray="3,2">
    <!-- Cloud to server -->
    <path d="M 75 60 Q 75 70 50 80"/>
    <!-- Cloud to database -->
    <path d="M 100 60 Q 120 70 145 85"/>
    <!-- Server to database -->
    <path d="M 80 102 Q 100 95 120 102"/>
  </g>
  
  <!-- Network nodes -->
  <circle cx="75" cy="60" r="3" fill="#0ea5e9"/>
  <circle cx="50" cy="80" r="3" fill="#0ea5e9"/>
  <circle cx="145" cy="85" r="3" fill="#0ea5e9"/>
  <circle cx="100" cy="95" r="3" fill="#0ea5e9"/>
  
  <!-- Small decorative clouds -->
  <g transform="translate(150, 15)" opacity="0.4">
    <ellipse cx="15" cy="8" rx="12" ry="6" fill="url(#cloudGrad)"/>
    <ellipse cx="8" cy="10" rx="8" ry="5" fill="url(#cloudGrad)"/>
    <ellipse cx="20" cy="12" rx="6" ry="3" fill="url(#cloudGrad)"/>
  </g>
  
  <g transform="translate(10, 40)" opacity="0.3">
    <ellipse cx="10" cy="5" rx="8" ry="4" fill="url(#cloudGrad)"/>
    <ellipse cx="5" cy="7" rx="5" ry="3" fill="url(#cloudGrad)"/>
    <ellipse cx="13" cy="8" rx="4" ry="2" fill="url(#cloudGrad)"/>
  </g>
</svg>
