<svg width="200" height="150" viewBox="0 0 200 150" fill="none" xmlns="http://www.w3.org/2000/svg">
  <!-- Background gradient -->
  <defs>
    <linearGradient id="bgGrad1" x1="0%" y1="0%" x2="100%" y2="100%">
      <stop offset="0%" style="stop-color:#f8fafc;stop-opacity:1" />
      <stop offset="100%" style="stop-color:#e2e8f0;stop-opacity:1" />
    </linearGradient>
    <linearGradient id="primaryGrad" x1="0%" y1="0%" x2="100%" y2="100%">
      <stop offset="0%" style="stop-color:#3b82f6;stop-opacity:1" />
      <stop offset="100%" style="stop-color:#1d4ed8;stop-opacity:1" />
    </linearGradient>
    <linearGradient id="screenGrad" x1="0%" y1="0%" x2="100%" y2="100%">
      <stop offset="0%" style="stop-color:#1e293b;stop-opacity:1" />
      <stop offset="100%" style="stop-color:#475569;stop-opacity:1" />
    </linearGradient>
  </defs>
  
  <!-- Background -->
  <rect width="200" height="150" fill="url(#bgGrad1)" rx="8"/>
  
  <!-- Notebook -->
  <g transform="translate(30, 30)">
    <!-- Base -->
    <rect x="0" y="40" width="80" height="50" fill="url(#primaryGrad)" rx="3"/>
    <rect x="2" y="42" width="76" height="46" fill="#e2e8f0" rx="2"/>
    
    <!-- Screen -->
    <rect x="5" y="5" width="70" height="45" fill="url(#screenGrad)" rx="2"/>
    <rect x="8" y="8" width="64" height="36" fill="#000000" rx="1"/>
    
    <!-- Screen content -->
    <rect x="12" y="12" width="20" height="2" fill="#3b82f6"/>
    <rect x="12" y="16" width="35" height="1.5" fill="#64748b"/>
    <rect x="12" y="20" width="28" height="1.5" fill="#64748b"/>
    <circle cx="60" cy="30" r="8" fill="#3b82f6" opacity="0.3"/>
    <circle cx="60" cy="30" r="5" fill="#3b82f6"/>
    
    <!-- Keyboard -->
    <rect x="8" y="50" width="64" height="20" fill="#cbd5e1" rx="1"/>
    <!-- Keys -->
    <rect x="12" y="54" width="6" height="3" fill="#94a3b8" rx="0.5"/>
    <rect x="20" y="54" width="6" height="3" fill="#94a3b8" rx="0.5"/>
    <rect x="28" y="54" width="6" height="3" fill="#94a3b8" rx="0.5"/>
    <rect x="36" y="54" width="6" height="3" fill="#94a3b8" rx="0.5"/>
    <rect x="44" y="54" width="6" height="3" fill="#94a3b8" rx="0.5"/>
    
    <rect x="12" y="59" width="6" height="3" fill="#94a3b8" rx="0.5"/>
    <rect x="20" y="59" width="6" height="3" fill="#94a3b8" rx="0.5"/>
    <rect x="28" y="59" width="12" height="3" fill="#94a3b8" rx="0.5"/>
    <rect x="42" y="59" width="6" height="3" fill="#94a3b8" rx="0.5"/>
    
    <!-- Trackpad -->
    <rect x="35" y="66" width="15" height="8" fill="#9ca3af" rx="1"/>
  </g>
  
  <!-- Desktop -->
  <g transform="translate(110, 25)">
    <!-- Monitor -->
    <rect x="0" y="0" width="60" height="40" fill="url(#primaryGrad)" rx="2"/>
    <rect x="3" y="3" width="54" height="30" fill="#000000" rx="1"/>
    
    <!-- Screen content -->
    <rect x="8" y="8" width="15" height="1.5" fill="#3b82f6"/>
    <rect x="8" y="12" width="25" height="1" fill="#64748b"/>
    <rect x="8" y="15" width="20" height="1" fill="#64748b"/>
    <circle cx="45" cy="20" r="6" fill="#3b82f6" opacity="0.3"/>
    <circle cx="45" cy="20" r="4" fill="#3b82f6"/>
    
    <!-- Stand -->
    <rect x="25" y="35" width="10" height="8" fill="#64748b"/>
    <rect x="20" y="43" width="20" height="3" fill="#64748b" rx="1"/>
    
    <!-- CPU -->
    <rect x="65" y="15" width="15" height="30" fill="url(#primaryGrad)" rx="1"/>
    <circle cx="72.5" cy="22" r="2" fill="#e2e8f0"/>
    <rect x="68" y="28" width="9" height="1" fill="#cbd5e1"/>
    <rect x="68" y="31" width="9" height="1" fill="#cbd5e1"/>
    <rect x="68" y="34" width="9" height="1" fill="#cbd5e1"/>
  </g>
  
  <!-- Server rack -->
  <g transform="translate(50, 95)">
    <rect x="0" y="0" width="100" height="35" fill="url(#primaryGrad)" rx="2"/>
    <rect x="2" y="2" width="96" height="31" fill="#1e293b" rx="1"/>
    
    <!-- Server units -->
    <rect x="5" y="5" width="90" height="8" fill="#374151" rx="1"/>
    <rect x="5" y="15" width="90" height="8" fill="#374151" rx="1"/>
    <rect x="5" y="25" width="90" height="6" fill="#374151" rx="1"/>
    
    <!-- LEDs -->
    <circle cx="85" cy="9" r="1.5" fill="#10b981"/>
    <circle cx="89" cy="9" r="1.5" fill="#3b82f6"/>
    <circle cx="85" cy="19" r="1.5" fill="#10b981"/>
    <circle cx="89" cy="19" r="1.5" fill="#f59e0b"/>
    <circle cx="85" cy="28" r="1.5" fill="#10b981"/>
    <circle cx="89" cy="28" r="1.5" fill="#3b82f6"/>
  </g>
</svg>
