<svg width="200" height="150" viewBox="0 0 200 150" fill="none" xmlns="http://www.w3.org/2000/svg">
  <!-- Background gradient -->
  <defs>
    <linearGradient id="bgGrad12" x1="0%" y1="0%" x2="100%" y2="100%">
      <stop offset="0%" style="stop-color:#f8fafc;stop-opacity:1" />
      <stop offset="100%" style="stop-color:#e2e8f0;stop-opacity:1" />
    </linearGradient>
    <linearGradient id="securityGrad" x1="0%" y1="0%" x2="100%" y2="100%">
      <stop offset="0%" style="stop-color:#dc2626;stop-opacity:1" />
      <stop offset="100%" style="stop-color:#991b1b;stop-opacity:1" />
    </linearGradient>
    <linearGradient id="protectionGrad" x1="0%" y1="0%" x2="100%" y2="100%">
      <stop offset="0%" style="stop-color:#059669;stop-opacity:1" />
      <stop offset="100%" style="stop-color:#047857;stop-opacity:1" />
    </linearGradient>
  </defs>
  
  <!-- Background -->
  <rect width="200" height="150" fill="url(#bgGrad12)" rx="8"/>
  
  <!-- Central security vault -->
  <g transform="translate(75, 40)">
    <!-- Vault door -->
    <circle cx="25" cy="25" r="25" fill="url(#protectionGrad)"/>
    <circle cx="25" cy="25" r="20" fill="#064e3b"/>
    <circle cx="25" cy="25" r="15" fill="#065f46"/>
    
    <!-- Vault combination dial -->
    <circle cx="25" cy="25" r="10" fill="#0f172a"/>
    <circle cx="25" cy="25" r="8" fill="#374151"/>
    <circle cx="25" cy="25" r="6" fill="#64748b"/>
    <circle cx="25" cy="25" r="3" fill="url(#protectionGrad)"/>
    
    <!-- Dial markings -->
    <g stroke="white" stroke-width="0.5" opacity="0.6">
      <line x1="25" y1="15" x2="25" y2="17"/>
      <line x1="35" y1="25" x2="33" y2="25"/>
      <line x1="25" y1="35" x2="25" y2="33"/>
      <line x1="15" y1="25" x2="17" y2="25"/>
      
      <line x1="31.2" y1="18.8" x2="30.1" y2="19.9"/>
      <line x1="31.2" y1="31.2" x2="30.1" y2="30.1"/>
      <line x1="18.8" y1="31.2" x2="19.9" y2="30.1"/>
      <line x1="18.8" y1="18.8" x2="19.9" y2="19.9"/>
    </g>
    
    <!-- Vault handle -->
    <rect x="45" y="22" width="8" height="6" fill="#1f2937" rx="3"/>
    <rect x="47" y="24" width="4" height="2" fill="#4b5563"/>
    
    <!-- Security layers -->
    <circle cx="25" cy="25" r="30" fill="none" stroke="url(#protectionGrad)" stroke-width="1" opacity="0.3" stroke-dasharray="3,3"/>
    <circle cx="25" cy="25" r="35" fill="none" stroke="url(#protectionGrad)" stroke-width="0.5" opacity="0.2" stroke-dasharray="5,5"/>
  </g>
  
  <!-- Threat detection system -->
  <g transform="translate(15, 15)">
    <!-- Radar/scanner -->
    <circle cx="15" cy="15" r="12" fill="url(#securityGrad)" opacity="0.3"/>
    <circle cx="15" cy="15" r="8" fill="url(#securityGrad)" opacity="0.5"/>
    <circle cx="15" cy="15" r="4" fill="url(#securityGrad)"/>
    
    <!-- Scanning beam -->
    <path d="M 15 15 L 25 10 A 10 10 0 0 1 25 20 Z" fill="url(#securityGrad)" opacity="0.6"/>
    
    <!-- Threat indicators -->
    <circle cx="22" cy="8" r="2" fill="#ef4444"/>
    <circle cx="8" cy="22" r="1.5" fill="#f59e0b"/>
    <circle cx="25" cy="25" r="1" fill="#ef4444"/>
    
    <!-- Alert symbols -->
    <path d="M 22 6 L 23 10 L 21 10 Z" fill="white"/>
    <circle cx="22" cy="11" r="0.3" fill="white"/>
  </g>
  
  <!-- Firewall protection -->
  <g transform="translate(155, 20)">
    <!-- Firewall barrier -->
    <rect x="0" y="0" width="30" height="40" fill="url(#securityGrad)" rx="2"/>
    <rect x="2" y="2" width="26" height="36" fill="#7f1d1d" rx="1"/>
    
    <!-- Firewall pattern -->
    <rect x="5" y="5" width="20" height="3" fill="#fca5a5" rx="0.5"/>
    <rect x="5" y="10" width="20" height="3" fill="#fca5a5" rx="0.5"/>
    <rect x="5" y="15" width="20" height="3" fill="#fca5a5" rx="0.5"/>
    <rect x="5" y="20" width="20" height="3" fill="#fca5a5" rx="0.5"/>
    <rect x="5" y="25" width="20" height="3" fill="#fca5a5" rx="0.5"/>
    <rect x="5" y="30" width="20" height="3" fill="#fca5a5" rx="0.5"/>
    
    <!-- Block indicators -->
    <circle cx="15" cy="12" r="5" fill="none" stroke="#fca5a5" stroke-width="1"/>
    <line x1="11" y1="12" x2="19" y2="12" stroke="#fca5a5" stroke-width="2"/>
    <line x1="15" y1="8" x2="15" y2="16" stroke="#fca5a5" stroke-width="2"/>
    
    <!-- Traffic monitoring -->
    <rect x="32" y="10" width="8" height="20" fill="white" rx="1" stroke="#cbd5e1"/>
    <rect x="33" y="12" width="6" height="2" fill="#10b981" rx="0.3"/>
    <rect x="33" y="15" width="4" height="1.5" fill="#64748b" rx="0.3"/>
    <rect x="33" y="17.5" width="5" height="1.5" fill="#64748b" rx="0.3"/>
    <rect x="33" y="20" width="3" height="1.5" fill="#ef4444" rx="0.3"/>
    <rect x="33" y="22.5" width="6" height="1.5" fill="#64748b" rx="0.3"/>
    <rect x="33" y="25" width="4" height="1.5" fill="#64748b" rx="0.3"/>
  </g>
  
  <!-- Data encryption -->
  <g transform="translate(20, 80)">
    <!-- Data flow -->
    <rect x="0" y="0" width="40" height="20" fill="white" rx="2" stroke="#cbd5e1"/>
    
    <!-- Unencrypted data -->
    <rect x="5" y="5" width="12" height="10" fill="#f1f5f9" rx="1"/>
    <rect x="7" y="7" width="8" height="1.5" fill="#3b82f6" rx="0.3"/>
    <rect x="7" y="9.5" width="6" height="1" fill="#64748b" rx="0.3"/>
    <rect x="7" y="11.5" width="7" height="1" fill="#64748b" rx="0.3"/>
    
    <!-- Encryption process -->
    <circle cx="25" cy="10" r="4" fill="url(#protectionGrad)" opacity="0.2"/>
    <rect x="23" y="8" width="1" height="4" fill="url(#protectionGrad)"/>
    <rect x="25" y="8" width="1" height="4" fill="url(#protectionGrad)"/>
    <rect x="27" y="8" width="1" height="4" fill="url(#protectionGrad)"/>
    
    <!-- Encrypted data -->
    <rect x="50" y="0" width="40" height="20" fill="white" rx="2" stroke="#cbd5e1"/>
    <rect x="55" y="5" width="12" height="10" fill="#065f46" rx="1"/>
    <rect x="57" y="7" width="8" height="1.5" fill="url(#protectionGrad)" rx="0.3"/>
    <rect x="57" y="9.5" width="6" height="1" fill="#059669" rx="0.3"/>
    <rect x="57" y="11.5" width="7" height="1" fill="#059669" rx="0.3"/>
    
    <!-- Lock symbol -->
    <rect x="75" y="8" width="4" height="3" fill="none" stroke="url(#protectionGrad)" stroke-width="0.5" rx="1"/>
    <rect x="74" y="10" width="6" height="2" fill="url(#protectionGrad)" rx="0.5"/>
    
    <!-- Encryption arrow -->
    <path d="M 40 10 L 50 10" stroke="url(#protectionGrad)" stroke-width="1.5"/>
    <path d="M 47 8 L 50 10 L 47 12" stroke="url(#protectionGrad)" stroke-width="1" fill="none"/>
  </g>
  
  <!-- Backup system -->
  <g transform="translate(140, 80)">
    <!-- Primary storage -->
    <rect x="0" y="0" width="15" height="20" fill="url(#protectionGrad)" rx="2"/>
    <rect x="2" y="2" width="11" height="16" fill="#0f172a" rx="1"/>
    
    <!-- Storage layers -->
    <rect x="4" y="4" width="7" height="2" fill="#374151" rx="0.5"/>
    <rect x="4" y="7" width="7" height="2" fill="#374151" rx="0.5"/>
    <rect x="4" y="10" width="7" height="2" fill="#374151" rx="0.5"/>
    <rect x="4" y="13" width="7" height="2" fill="#374151" rx="0.5"/>
    
    <!-- Activity indicators -->
    <circle cx="10" cy="5" r="0.8" fill="#10b981"/>
    <circle cx="10" cy="8" r="0.8" fill="#10b981"/>
    <circle cx="10" cy="11" r="0.8" fill="#3b82f6"/>
    <circle cx="10" cy="14" r="0.8" fill="#10b981"/>
    
    <!-- Backup storage -->
    <rect x="20" y="5" width="15" height="15" fill="#64748b" rx="2"/>
    <rect x="22" y="7" width="11" height="11" fill="#334155" rx="1"/>
    
    <!-- Backup data -->
    <rect x="24" y="9" width="7" height="1.5" fill="#cbd5e1" rx="0.3"/>
    <rect x="24" y="11.5" width="5" height="1" fill="#94a3b8" rx="0.3"/>
    <rect x="24" y="13.5" width="6" height="1" fill="#94a3b8" rx="0.3"/>
    <rect x="24" y="15.5" width="4" height="1" fill="#94a3b8" rx="0.3"/>
    
    <!-- Sync arrows -->
    <path d="M 15 8 Q 17.5 6 20 8" stroke="url(#protectionGrad)" stroke-width="1" fill="none"/>
    <path d="M 18 7 L 20 8 L 18 9" stroke="url(#protectionGrad)" stroke-width="0.5" fill="none"/>
    
    <path d="M 20 15 Q 17.5 17 15 15" stroke="url(#protectionGrad)" stroke-width="1" fill="none"/>
    <path d="M 17 14 L 15 15 L 17 16" stroke="url(#protectionGrad)" stroke-width="0.5" fill="none"/>
  </g>
  
  <!-- Network monitoring -->
  <g transform="translate(20, 110)">
    <!-- Monitoring dashboard -->
    <rect x="0" y="0" width="50" height="25" fill="white" rx="2" stroke="#cbd5e1"/>
    
    <!-- Header -->
    <rect x="0" y="0" width="50" height="6" fill="#1e293b" rx="2"/>
    <rect x="0" y="4" width="50" height="2" fill="#1e293b"/>
    
    <!-- Status indicators -->
    <circle cx="8" cy="12" r="3" fill="#10b981" opacity="0.3"/>
    <circle cx="8" cy="12" r="1.5" fill="#10b981"/>
    
    <circle cx="20" cy="12" r="3" fill="#f59e0b" opacity="0.3"/>
    <circle cx="20" cy="12" r="1.5" fill="#f59e0b"/>
    
    <circle cx="32" cy="12" r="3" fill="#ef4444" opacity="0.3"/>
    <circle cx="32" cy="12" r="1.5" fill="#ef4444"/>
    
    <circle cx="42" cy="12" r="3" fill="#3b82f6" opacity="0.3"/>
    <circle cx="42" cy="12" r="1.5" fill="#3b82f6"/>
    
    <!-- Status labels -->
    <rect x="6" y="18" width="4" height="1" fill="#10b981" rx="0.3"/>
    <rect x="18" y="18" width="4" height="1" fill="#f59e0b" rx="0.3"/>
    <rect x="30" y="18" width="4" height="1" fill="#ef4444" rx="0.3"/>
    <rect x="40" y="18" width="4" height="1" fill="#3b82f6" rx="0.3"/>
    
    <rect x="5" y="20" width="6" height="0.8" fill="#64748b" rx="0.3"/>
    <rect x="17" y="20" width="6" height="0.8" fill="#64748b" rx="0.3"/>
    <rect x="29" y="20" width="6" height="0.8" fill="#64748b" rx="0.3"/>
    <rect x="39" y="20" width="6" height="0.8" fill="#64748b" rx="0.3"/>
  </g>
  
  <!-- Incident response -->
  <g transform="translate(80, 110)">
    <!-- Response team -->
    <rect x="0" y="0" width="60" height="25" fill="white" rx="2" stroke="#cbd5e1"/>
    
    <!-- Team icons -->
    <circle cx="8" cy="8" r="4" fill="url(#securityGrad)" opacity="0.3"/>
    <circle cx="8" cy="8" r="2" fill="url(#securityGrad)"/>
    <rect x="6" y="10" width="4" height="2" fill="url(#securityGrad)" opacity="0.6" rx="0.5"/>
    
    <circle cx="20" cy="8" r="4" fill="url(#protectionGrad)" opacity="0.3"/>
    <circle cx="20" cy="8" r="2" fill="url(#protectionGrad)"/>
    <rect x="18" y="10" width="4" height="2" fill="url(#protectionGrad)" opacity="0.6" rx="0.5"/>
    
    <circle cx="32" cy="8" r="4" fill="#3b82f6" opacity="0.3"/>
    <circle cx="32" cy="8" r="2" fill="#3b82f6"/>
    <rect x="30" y="10" width="4" height="2" fill="#3b82f6" opacity="0.6" rx="0.5"/>
    
    <!-- Response time -->
    <rect x="40" y="5" width="15" height="8" fill="#fef3c7" rx="1"/>
    <rect x="42" y="7" width="6" height="1.5" fill="#f59e0b" rx="0.3"/>
    <rect x="42" y="9.5" width="4" height="1" fill="#d97706" rx="0.3"/>
    
    <!-- Communication lines -->
    <rect x="5" y="15" width="50" height="8" fill="#f1f5f9" rx="1"/>
    <rect x="7" y="17" width="15" height="1" fill="#3b82f6" rx="0.3"/>
    <rect x="7" y="19" width="20" height="1" fill="#64748b" rx="0.3"/>
    <rect x="7" y="21" width="18" height="1" fill="#64748b" rx="0.3"/>
    
    <rect x="30" y="17" width="12" height="1" fill="#10b981" rx="0.3"/>
    <rect x="30" y="19" width="15" height="1" fill="#64748b" rx="0.3"/>
    <rect x="30" y="21" width="10" height="1" fill="#64748b" rx="0.3"/>
  </g>
  
  <!-- Security connections -->
  <g stroke="url(#protectionGrad)" stroke-width="1" fill="none" opacity="0.6" stroke-dasharray="2,2">
    <!-- Vault to monitoring -->
    <path d="M 100 75 Q 80 90 70 110"/>
    <!-- Firewall to vault -->
    <path d="M 155 60 Q 140 65 125 65"/>
    <!-- Threat detection to firewall -->
    <path d="M 45 30 Q 100 25 155 35"/>
    <!-- Backup to vault -->
    <path d="M 140 95 Q 125 85 115 75"/>
  </g>
  
  <!-- Security nodes -->
  <circle cx="70" cy="110" r="2" fill="url(#protectionGrad)"/>
  <circle cx="125" cy="65" r="2" fill="url(#protectionGrad)"/>
  <circle cx="155" cy="35" r="2" fill="url(#securityGrad)"/>
  <circle cx="115" cy="75" r="2" fill="url(#protectionGrad)"/>
</svg>
