<svg viewBox="0 0 800 400" xmlns="http://www.w3.org/2000/svg">
  <defs>
    <linearGradient id="bg1" x1="0%" y1="0%" x2="100%" y2="100%">
      <stop offset="0%" style="stop-color:#667eea;stop-opacity:1" />
      <stop offset="100%" style="stop-color:#764ba2;stop-opacity:1" />
    </linearGradient>
    <linearGradient id="accent1" x1="0%" y1="0%" x2="100%" y2="0%">
      <stop offset="0%" style="stop-color:#f093fb;stop-opacity:1" />
      <stop offset="100%" style="stop-color:#f5576c;stop-opacity:1" />
    </linearGradient>
  </defs>
  
  <!-- Background -->
  <rect width="800" height="400" fill="url(#bg1)"/>
  
  <!-- Grid pattern -->
  <defs>
    <pattern id="grid" width="40" height="40" patternUnits="userSpaceOnUse">
      <path d="M 40 0 L 0 0 0 40" fill="none" stroke="rgba(255,255,255,0.1)" stroke-width="1"/>
    </pattern>
  </defs>
  <rect width="800" height="400" fill="url(#grid)"/>
  
  <!-- Robotic arm -->
  <g transform="translate(150, 200)">
    <rect x="0" y="-10" width="80" height="20" rx="10" fill="#ffffff" opacity="0.9"/>
    <rect x="70" y="-8" width="60" height="16" rx="8" fill="#ffffff" opacity="0.8"/>
    <circle cx="130" cy="0" r="15" fill="url(#accent1)"/>
    <rect x="120" y="-3" width="20" height="6" rx="3" fill="#ffffff"/>
  </g>
  
  <!-- Gears -->
  <g transform="translate(300, 150)">
    <circle cx="0" cy="0" r="25" fill="none" stroke="#ffffff" stroke-width="3" opacity="0.8"/>
    <polygon points="-8,-20 8,-20 8,-25 -8,-25" fill="#ffffff" opacity="0.8"/>
    <polygon points="20,-8 20,8 25,8 25,-8" fill="#ffffff" opacity="0.8"/>
    <polygon points="8,20 -8,20 -8,25 8,25" fill="#ffffff" opacity="0.8"/>
    <polygon points="-20,8 -20,-8 -25,-8 -25,8" fill="#ffffff" opacity="0.8"/>
  </g>
  
  <g transform="translate(350, 180)">
    <circle cx="0" cy="0" r="18" fill="none" stroke="#ffffff" stroke-width="2" opacity="0.6"/>
    <polygon points="-6,-15 6,-15 6,-18 -6,-18" fill="#ffffff" opacity="0.6"/>
    <polygon points="15,-6 15,6 18,6 18,-6" fill="#ffffff" opacity="0.6"/>
    <polygon points="6,15 -6,15 -6,18 6,18" fill="#ffffff" opacity="0.6"/>
    <polygon points="-15,6 -15,-6 -18,-6 -18,6" fill="#ffffff" opacity="0.6"/>
  </g>
  
  <!-- Process flow -->
  <g transform="translate(500, 200)">
    <rect x="0" y="-15" width="100" height="30" rx="15" fill="#ffffff" opacity="0.9"/>
    <rect x="10" y="-5" width="80" height="10" rx="5" fill="url(#accent1)"/>
    <circle cx="120" cy="0" r="8" fill="#ffffff"/>
    <circle cx="140" cy="0" r="8" fill="url(#accent1)"/>
    <circle cx="160" cy="0" r="8" fill="#ffffff"/>
  </g>
  
  <!-- Data visualization -->
  <g transform="translate(600, 120)">
    <rect x="0" y="0" width="12" height="60" fill="#ffffff" opacity="0.8"/>
    <rect x="20" y="20" width="12" height="40" fill="#ffffff" opacity="0.9"/>
    <rect x="40" y="10" width="12" height="50" fill="url(#accent1)"/>
    <rect x="60" y="30" width="12" height="30" fill="#ffffff" opacity="0.7"/>
  </g>
  
  <!-- Connecting lines -->
  <path d="M 230 200 Q 280 180 300 150" stroke="#ffffff" stroke-width="2" fill="none" opacity="0.6"/>
  <path d="M 350 200 Q 400 200 500 200" stroke="#ffffff" stroke-width="2" fill="none" opacity="0.6"/>
  <path d="M 600 200 Q 620 160 620 120" stroke="#ffffff" stroke-width="2" fill="none" opacity="0.6"/>
  
  <!-- Floating elements -->
  <circle cx="100" cy="100" r="4" fill="#ffffff" opacity="0.7"/>
  <circle cx="700" cy="300" r="6" fill="url(#accent1)" opacity="0.8"/>
  <circle cx="80" cy="320" r="3" fill="#ffffff" opacity="0.5"/>
</svg>
